<svg width="20" height="20" viewBox="0 0 20 20" fill="none" xmlns="http://www.w3.org/2000/svg">
<g id="BiLoader">
<path id="Vector" d="M1.6665 9.16663H5.83317V10.8333H1.6665V9.16663ZM14.1665 9.16663H18.3332V10.8333H14.1665V9.16663ZM9.1665 14.1666H10.8332V18.3333H9.1665V14.1666ZM9.1665 1.66663H10.8332V5.83329H9.1665V1.66663ZM3.51817 4.69663L4.6965 3.51829L7.64317 6.46496L6.46484 7.64329L3.51817 4.69663ZM16.4815 15.3033L15.3032 16.4816L12.3565 13.535L13.5348 12.3566L16.4815 15.3033ZM6.46484 12.3566L7.64317 13.535L4.6965 16.4816L3.51817 15.3033L6.46484 12.3566ZM12.3565 6.46413L15.3032 3.51829L16.4815 4.69746L13.5348 7.64329L12.3565 6.46413Z" fill="url(#paint0_linear_174_3209)"/>
</g>
<defs>
<linearGradient id="paint0_linear_174_3209" x1="9.1665" y1="0.416626" x2="12.0832" y2="18.3333" gradientUnits="userSpaceOnUse">
<stop stop-color="white" stop-opacity="0.5"/>
<stop offset="1" stop-color="#020202"/>
</linearGradient>
</defs>
</svg>
