<svg width="20" height="20" viewBox="0 0 20 20" fill="none" xmlns="http://www.w3.org/2000/svg">
<g id="MdRefresh">
<path id="Vector" d="M14.7085 5.29171C14.0917 4.67075 13.3581 4.17801 12.55 3.8419C11.742 3.50579 10.8753 3.33296 10.0001 3.33337C6.3168 3.33337 3.3418 6.31671 3.3418 10C3.3418 13.6834 6.3168 16.6667 10.0001 16.6667C13.1085 16.6667 15.7001 14.5417 16.4418 11.6667H14.7085C14.3652 12.6413 13.7279 13.4854 12.8846 14.0824C12.0412 14.6795 11.0334 15.0001 10.0001 15C7.2418 15 5.00013 12.7584 5.00013 10C5.00013 7.24171 7.2418 5.00004 10.0001 5.00004C11.3835 5.00004 12.6168 5.57504 13.5168 6.48338L10.8335 9.16671H16.6668V3.33337L14.7085 5.29171Z" fill="black"/>
</g>
</svg>
